<svg width="217" height="227" viewBox="0 0 217 227" fill="none" xmlns="http://www.w3.org/2000/svg">
<path d="M214.709 221.818L111.079 196.77V134.494C111.079 133.782 110.741 133.115 110.17 132.696L68.8661 102.332L86.4519 82.193C86.4779 82.1645 86.4805 82.1307 86.5064 82.1047C86.6389 81.9359 86.7428 81.7489 86.8233 81.5437C86.8441 81.4866 86.8804 81.4424 86.896 81.3905C86.8986 81.3775 86.909 81.3697 86.9116 81.3567L92.3944 62.7031L113.325 39.011C113.938 38.3149 114.058 37.3098 113.624 36.489C113.19 35.6683 112.271 35.2008 111.367 35.3203L98.7546 36.9565C98.7104 36.7929 98.6896 36.6267 98.6065 36.4709L92.3602 24.9522C91.8849 24.0795 90.8823 23.6302 89.9188 23.838L83.0072 25.3626L77.7296 1.74824C77.5712 1.04179 77.0881 0.462598 76.4258 0.179487C75.7635 -0.106212 75.0051 -0.0464733 74.3922 0.327529L51.7598 14.1061L45.3732 12.0102C44.768 11.8024 44.0953 11.8803 43.5396 12.2076C7.42254 33.6165 7.17785 33.8658 6.91323 34.1311C6.29249 34.7492 6.13664 35.6401 6.39639 36.4167C6.23536 37.0374 6.2873 37.6971 6.6613 38.2374L25.9352 65.8305L0.207182 122.001C-0.0551383 122.569 -0.0499458 123.19 0.160432 123.733C0.0721273 123.975 0.00200016 124.227 0.00200016 124.491V151.378C0.00200016 151.573 0.0305701 151.773 0.0773201 151.96L9.30006 186.075L0.0666775 222.997C-0.0995459 223.665 0.0485035 224.371 0.471857 224.912C0.897801 225.454 1.54452 225.769 2.23276 225.769H28.4934C29.379 225.769 30.1816 225.244 30.5374 224.431L42.1006 197.984C50.8818 225.811 52.2169 225.99 53.3699 226.125C53.64 226.156 54.2062 226.218 59.6863 226.218H59.6889C73.927 226.218 108.353 225.774 108.86 225.769L214.172 226.226H214.183C215.31 226.226 216.26 225.382 216.396 224.26C216.536 223.133 215.809 222.083 214.707 221.818L214.709 221.818ZM44.8024 84.6439L79.6628 83.1713L65.2532 99.6766L44.8024 84.6439ZM90.1349 58.5076L73.3051 44.7523L106.04 40.5058L90.1349 58.5076ZM94.1138 37.5555L69.806 40.7085L68.8009 33.0676L89.2331 28.551L94.1138 37.5555ZM74.0474 5.75228L77.8263 22.6678L57.3237 15.9331L74.0474 5.75228ZM44.9403 16.5595L76.2555 26.8474L65.9549 29.1252L15.5759 34.0287C22.82 29.694 35.3771 22.2322 44.9403 16.56V16.5595ZM64.3911 33.7529L65.669 43.4903C65.6742 43.5319 65.682 43.5734 65.6871 43.6124C65.7339 43.8643 65.8222 44.0981 65.9417 44.3085V44.3111C65.9417 44.3136 65.9443 44.3136 65.9443 44.3136C66.0482 44.4955 66.178 44.6669 66.3391 44.8175L66.3417 44.8201C66.3884 44.8643 66.4326 44.9032 66.4793 44.9422L87.8257 62.3823L83.0702 78.5579L41.4991 80.3162L12.4984 38.8016L64.3911 33.7529ZM38.1458 83.3081L16.56 107.629L7.86983 115.976L28.8998 70.0674L38.1458 83.3081ZM39.2704 193.308L27.0323 221.302H5.08819L13.7684 186.592C13.8593 186.223 13.8567 185.836 13.758 185.47L4.46277 151.082V125.437L17.0519 113.342C27.7394 150.613 35.139 175.578 40.3098 192.252C39.8709 192.475 39.4891 192.818 39.2709 193.309L39.2704 193.308ZM59.6873 221.753C57.077 221.753 55.6355 221.737 54.8356 221.722C50.9995 213.681 32.6813 151.669 20.6614 109.734L40.6913 87.1666L106.612 135.623V221.328C98.7399 221.424 71.8376 221.752 59.688 221.752C59.6906 221.752 59.6906 221.752 59.688 221.752L59.6873 221.753ZM111.076 221.309V201.362L195.112 221.675L111.076 221.309Z" fill="black"/>
</svg>
